PathFileType	4	(X/Y/Z)	/Users/itak/Documents/Research/Walk-IL/dataset/trc/00311_00010.trc
DataRate	CameraRate	NumFrames	NumMarkers	Units	OrigDataRate	OrigDataStartFrame	OrigNumFrames
100.000000	100.000000	4	53	mm	100.000000	78	629
Frame#	Time	RPSI			LPSI			L3			STRN			T10			C7			CLAV			RBAK			LBAK			LSHO			LUPA			LAEL			LAOL			LWTS			LWPS			LFRA			LIFD			LHPS			LHTS			RSHO			RUPA			RAEL			RAOL			RWTS			RWPS			RFRA			RIFD			RHTS			RHPS			RBHD			LFHD			RFHD			LBHD			LHIP			RHIP			RASI			LASI			LKNE			LTHI			LANK			LTIP			LTOE			LMT1			LMT5			LHEE			RKNE			RTHI			RANK			RTIP			RTOE			RMT1			RMT5			RHEE			
		X1	Y1	Z1	X2	Y2	Z2	X3	Y3	Z3	X4	Y4	Z4	X5	Y5	Z5	X6	Y6	Z6	X7	Y7	Z7	X8	Y8	Z8	X9	Y9	Z9	X10	Y10	Z10	X11	Y11	Z11	X12	Y12	Z12	X13	Y13	Z13	X14	Y14	Z14	X15	Y15	Z15	X16	Y16	Z16	X17	Y17	Z17	X18	Y18	Z18	X19	Y19	Z19	X20	Y20	Z20	X21	Y21	Z21	X22	Y22	Z22	X23	Y23	Z23	X24	Y24	Z24	X25	Y25	Z25	X26	Y26	Z26	X27	Y27	Z27	X28	Y28	Z28	X29	Y29	Z29	X30	Y30	Z30	X31	Y31	Z31	X32	Y32	Z32	X33	Y33	Z33	X34	Y34	Z34	X35	Y35	Z35	X36	Y36	Z36	X37	Y37	Z37	X38	Y38	Z38	X39	Y39	Z39	X40	Y40	Z40	X41	Y41	Z41	X42	Y42	Z42	X43	Y43	Z43	X44	Y44	Z44	X45	Y45	Z45	X46	Y46	Z46	X47	Y47	Z47	X48	Y48	Z48	X49	Y49	Z49	X50	Y50	Z50	X51	Y51	Z51	X52	Y52	Z52	X53	Y53	Z53	

79	0.78	-1175.230346679688	1011.584838867188	-656.6097412109375	-1171.237548828125	1003.282104492188	-830.5137329101562	-1154.269653320312	1076.773681640625	-747.4837036132812	-907.1350708007812	1254.059936523438	-753.7001342773438	-1165.064697265625	1188.956176757812	-750.22705078125	-1128.45654296875	1433.139282226562	-772.1485595703125	-968.098876953125	1356.761474609375	-760.7551879882812	-1177.993896484375	1297.893798828125	-690.1135864257812	-1139.479614257812	1394.879638671875	-876.9901123046875	-1046.93017578125	1403.337280273438	-928.7351684570312	-1067.833984375	1282.9736328125	-1000.642333984375	-1054.514038085938	1077.914794921875	-1010.895446777344	-1119.684936523438	1065.166015625	-954.68115234375	-972.9305419921875	859.9727172851562	-947.91015625	-1003.715698242188	844.70849609375	-1014.149841308594	-1037.93798828125	973.3155517578125	-1015.255004882812	-966.7747192382812	672.299072265625	-949.4797973632812	-997.3665161132812	756.41845703125	-1009.403198242188	-926.8599853515625	773.2918701171875	-972.5046997070312	-1061.165649414062	1417.592529296875	-610.483154296875	-1064.858764648438	1360.05615234375	-540.9672241210938	-1045.488647460938	1090.296264648438	-491.284912109375	-1094.635498046875	1082.361083984375	-572.0733032226562	-950.2098999023438	870.9197387695312	-570.1962890625	-974.8240356445312	862.7424926757812	-489.1763305664062	-1015.346374511719	1023.716674804688	-486.5875244140625	-938.6640625	685.5125122070312	-576.1221923828125	-914.0460205078125	755.8568115234375	-562.9403686523438	-948.4688720703125	752.6345825195312	-501.265380859375	-1113.779052734375	1593.913330078125	-703.8707275390625	-930.9749145507812	1636.793701171875	-805.1018676757812	-942.3583374023438	1633.517333984375	-712.4376220703125	-1095.158203125	1587.774658203125	-848.677001953125	-1103.80810546875	952.6569213867188	-925.0361938476562	-1074.255615234375	960.3624877929688	-552.720703125	-954.2366333007812	963.4530639648438	-622.3327026367188	-965.160400390625	957.4029541015625	-873.6075439453125	-1056.266235351562	486.3195190429688	-896.7376098632812	-1056.7978515625	628.9113159179688	-916.0885620117188	-1155.037841796875	48.27840042114258	-884.7933959960938	-1113.26611328125	264.0604858398438	-900.5094604492188	-946.909423828125	39.71630477905273	-828.5975341796875	-1016.733642578125	32.36856079101562	-786.8828735351562	-1032.60595703125	41.91215515136719	-899.4761352539062	-1200.065795898438	43.93149185180664	-824.3535766601562	-1051.522705078125	485.4600524902344	-575.2727661132812	-1019.364440917969	749.6974487304688	-551.6641845703125	-1136.2158203125	45.48725509643555	-589.550537109375	-1051.508422851562	362.3124694824219	-583.747314453125	-943.5630493164062	44.90055465698242	-649.860595703125	-1002.96875	40.29625701904297	-685.369140625	-1031.028930664062	37.51522827148438	-570.6473999023438	-1190.43017578125	38.43870544433594	-636.41455078125	
80	0.79	-1175.3203125	1011.574035644531	-656.762939453125	-1171.245361328125	1003.251708984375	-830.6701049804688	-1154.265502929688	1076.79296875	-747.6297607421875	-907.0650024414062	1254.1123046875	-753.8056030273438	-1165.0986328125	1189.001220703125	-750.4295043945312	-1128.477905273438	1433.179809570312	-772.323486328125	-968.09619140625	1356.791015625	-760.8325805664062	-1178.050903320312	1297.94091796875	-690.2882690429688	-1139.431762695312	1394.947387695312	-877.1781005859375	-1046.79443359375	1403.394897460938	-928.8827514648438	-1067.69384765625	1283.037719726562	-1000.828979492188	-1054.583740234375	1077.98046875	-1011.068908691406	-1119.731811523438	1065.28466796875	-954.8802490234375	-973.186767578125	859.947509765625	-948.0328979492188	-1004.05078125	844.6982421875	-1014.315795898438	-1038.082763671875	973.354736328125	-1015.434387207031	-967.3875732421875	672.2611083984375	-949.6480102539062	-997.84619140625	756.4044799804688	-1009.576354980469	-927.1796264648438	773.19140625	-972.6273803710938	-1061.18212890625	1417.638305664062	-610.62890625	-1064.93115234375	1360.1171875	-541.1174926757812	-1045.604370117188	1090.36962890625	-491.3862915039062	-1094.705444335938	1082.4091796875	-572.1970825195312	-950.3113403320312	870.9279174804688	-570.3074951171875	-974.9845581054688	862.8095092773438	-489.2691650390625	-1015.45361328125	1023.792907714844	-486.6900939941406	-938.8353271484375	685.5542602539062	-576.181640625	-914.1815795898438	755.903564453125	-562.9639282226562	-948.5390014648438	752.6490478515625	-501.3270568847656	-1113.779052734375	1593.9150390625	-703.9078369140625	-931.1187744140625	1636.753295898438	-805.2837524414062	-942.362060546875	1633.477783203125	-712.5526123046875	-1095.2841796875	1587.85498046875	-848.72314453125	-1103.814453125	952.6473388671875	-925.1715698242188	-1074.391235351562	960.3828735351562	-552.8561401367188	-954.2882690429688	963.461669921875	-622.3888549804688	-965.2465209960938	957.3643798828125	-873.7028198242188	-1056.24267578125	486.3020629882812	-896.8094482421875	-1056.84228515625	628.9130859375	-916.1701049804688	-1155.038696289062	48.27461242675781	-884.7991333007812	-1113.243408203125	264.0411071777344	-900.5302734375	-946.9219360351562	39.74687576293945	-828.5882568359375	-1016.725402832031	32.36152267456055	-786.8803100585938	-1032.630126953125	41.92335891723633	-899.4741821289062	-1200.070556640625	43.92750549316406	-824.3447875976562	-1051.500244140625	485.47119140625	-575.3080444335938	-1019.374267578125	749.6784057617188	-551.7656860351562	-1136.179565429688	45.46898651123047	-589.5463256835938	-1051.468627929688	362.2983703613281	-583.8082885742188	-943.5599365234375	44.89945220947266	-649.8558349609375	-1002.967224121094	40.29538726806641	-685.3703002929688	-1031.021728515625	37.51474380493164	-570.64501953125	-1190.434936523438	38.44591903686523	-636.4204711914062	
81	0.8	-1175.396484375	1011.557556152344	-656.9098510742188	-1171.269165039062	1003.216003417969	-830.8331909179688	-1154.262939453125	1076.813232421875	-747.7666015625	-906.982666015625	1254.173706054688	-753.915283203125	-1165.140258789062	1189.050048828125	-750.6334228515625	-1128.50390625	1433.2197265625	-772.4991455078125	-968.0933227539062	1356.82080078125	-760.9102172851562	-1178.120971679688	1297.987182617188	-690.4708862304688	-1139.393798828125	1395.009765625	-877.37353515625	-1046.67041015625	1403.4482421875	-929.0313720703125	-1067.552612304688	1283.103149414062	-1001.015502929688	-1054.639038085938	1078.04345703125	-1011.249389648438	-1119.762817382812	1065.39599609375	-955.0851440429688	-973.4262084960938	859.9213256835938	-948.17431640625	-1004.353271484375	844.6881713867188	-1014.48681640625	-1038.218383789062	973.4019165039062	-1015.627380371094	-967.9508666992188	672.2228393554688	-949.8265380859375	-998.2924194335938	756.3928833007812	-1009.763549804688	-927.5117797851562	773.0874633789062	-972.7315673828125	-1061.203125	1417.685180664062	-610.7689208984375	-1064.989013671875	1360.177001953125	-541.2648315429688	-1045.712524414062	1090.446166992188	-491.4832458496094	-1094.780639648438	1082.4609375	-572.3175048828125	-950.426513671875	870.9361572265625	-570.4189453125	-975.1420288085938	862.8758544921875	-489.3561096191406	-1015.576232910156	1023.869689941406	-486.7902526855469	-939.0158081054688	685.5940551757812	-576.23779296875	-914.3165893554688	755.9451293945312	-562.9773559570312	-948.6171264648438	752.6613159179688	-501.376953125	-1113.780029296875	1593.912109375	-703.9548950195312	-931.25927734375	1636.719482421875	-805.4602661132812	-942.36669921875	1633.437744140625	-712.6712036132812	-1095.40869140625	1587.930908203125	-848.768798828125	-1103.822021484375	952.6367797851562	-925.307373046875	-1074.532348632812	960.400390625	-552.9991455078125	-954.3565673828125	963.4671630859375	-622.457275390625	-965.3267211914062	957.3363647460938	-873.7994384765625	-1056.217407226562	486.2831420898438	-896.8822021484375	-1056.872192382812	628.9080810546875	-916.2503051757812	-1155.03955078125	48.26975250244141	-884.8045043945312	-1113.214111328125	264.016845703125	-900.55078125	-946.9283447265625	39.76462554931641	-828.5833129882812	-1016.717041015625	32.3551139831543	-786.8788452148438	-1032.658569335938	41.93729782104492	-899.4719848632812	-1200.072265625	43.9171142578125	-824.3355102539062	-1051.471557617188	485.4816284179688	-575.3456420898438	-1019.373413085938	749.6646728515625	-551.8768310546875	-1136.149536132812	45.45447540283203	-589.5436401367188	-1051.40966796875	362.2827758789062	-583.8634033203125	-943.549560546875	44.89539337158203	-649.8555908203125	-1002.963745117188	40.29437255859375	-685.3720703125	-1031.013549804688	37.51374816894531	-570.642578125	-1190.44091796875	38.45427322387695	-636.425048828125	
82	0.8100000000000001	-1175.460693359375	1011.535034179688	-657.0521240234375	-1171.306518554688	1003.175659179688	-831.0017700195312	-1154.263305664062	1076.8330078125	-747.896240234375	-906.8963623046875	1254.238891601562	-754.0243530273438	-1165.1884765625	1189.102172851562	-750.8377685546875	-1128.533203125	1433.258544921875	-772.677978515625	-968.0890502929688	1356.850830078125	-760.9893798828125	-1178.20166015625	1298.033203125	-690.65966796875	-1139.36328125	1395.065063476562	-877.5753784179688	-1046.562255859375	1403.496948242188	-929.181884765625	-1067.41650390625	1283.169677734375	-1001.200012207031	-1054.681640625	1078.103393554688	-1011.436340332031	-1119.772827148438	1065.498291015625	-955.2950439453125	-973.6488647460938	859.89306640625	-948.3349609375	-1004.619873046875	844.6776733398438	-1014.663208007812	-1038.339233398438	973.45556640625	-1015.831176757812	-968.4697875976562	672.1827392578125	-950.0157470703125	-998.7044067382812	756.384521484375	-1009.966186523438	-927.8530883789062	773.0046997070312	-972.8355102539062	-1061.231201171875	1417.732788085938	-610.904052734375	-1065.033935546875	1360.235473632812	-541.4086303710938	-1045.810302734375	1090.524658203125	-491.5770263671875	-1094.860229492188	1082.51708984375	-572.4358520507812	-950.5542602539062	870.9463500976562	-570.530029296875	-975.2964477539062	862.9400634765625	-489.4381408691406	-1015.711975097656	1023.945129394531	-486.8885498046875	-939.1967163085938	685.6325073242188	-576.2901611328125	-914.4462890625	755.982177734375	-562.9803466796875	-948.7015380859375	752.673828125	-501.4180603027344	-1113.781616210938	1593.90625	-704.0116577148438	-931.3904418945312	1636.69482421875	-805.626220703125	-942.369384765625	1633.396606445312	-712.7940063476562	-1095.530883789062	1588.002197265625	-848.814453125	-1103.828735351562	952.6244506835938	-925.441162109375	-1074.678344726562	960.4146728515625	-553.1488647460938	-954.4447631835938	963.4698486328125	-622.5400390625	-965.399658203125	957.3189086914062	-873.89794921875	-1056.192016601562	486.2635498046875	-896.9556884765625	-1056.886352539062	628.8961181640625	-916.3292846679688	-1155.04052734375	48.26444244384766	-884.80908203125	-1113.184936523438	263.9918518066406	-900.5711669921875	-946.9303588867188	39.76959991455078	-828.5816650390625	-1016.707946777344	32.34922790527344	-786.8778076171875	-1032.68701171875	41.95208740234375	-899.4691772460938	-1200.069946289062	43.90022659301758	-824.3276977539062	-1051.440063476562	485.4917602539062	-575.38818359375	-1019.36474609375	749.6561889648438	-551.9964599609375	-1136.134033203125	45.44847869873047	-589.544189453125	-1051.337158203125	362.2688598632812	-583.9093017578125	-943.5322265625	44.88904190063477	-649.8599853515625	-1002.959106445312	40.29318618774414	-685.3742065429688	-1031.005737304688	37.51307678222656	-570.640625	-1190.446411132812	38.46240997314453	-636.42822265625	
